<svg xmlns="http://www.w3.org/2000/svg" xmlns:xlink="http://www.w3.org/1999/xlink" width="512" zoomAndPan="magnify" viewBox="0 0 384 383.999986" height="512" preserveAspectRatio="xMidYMid meet" version="1.0"><defs><g/></defs><g fill="#000000" fill-opacity="1"><g transform="translate(123.578903, 119.531607)"><g><path d="M 8.59375 0.265625 C 7.613281 0.265625 6.675781 0.1875 5.78125 0.03125 C 4.882812 -0.125 4.0625 -0.347656 3.3125 -0.640625 C 2.5625 -0.929688 1.90625 -1.285156 1.34375 -1.703125 L 2.40625 -4.40625 C 2.96875 -4.007812 3.578125 -3.675781 4.234375 -3.40625 C 4.890625 -3.144531 5.582031 -2.945312 6.3125 -2.8125 C 7.039062 -2.6875 7.800781 -2.625 8.59375 -2.625 C 9.894531 -2.625 10.859375 -2.84375 11.484375 -3.28125 C 12.117188 -3.726562 12.4375 -4.328125 12.4375 -5.078125 C 12.4375 -5.492188 12.335938 -5.832031 12.140625 -6.09375 C 11.953125 -6.363281 11.640625 -6.59375 11.203125 -6.78125 C 10.765625 -6.96875 10.195312 -7.132812 9.5 -7.28125 L 6.578125 -7.84375 C 4.910156 -8.164062 3.679688 -8.753906 2.890625 -9.609375 C 2.097656 -10.460938 1.703125 -11.5625 1.703125 -12.90625 C 1.703125 -14.019531 2.007812 -14.992188 2.625 -15.828125 C 3.25 -16.660156 4.109375 -17.300781 5.203125 -17.75 C 6.296875 -18.207031 7.554688 -18.4375 8.984375 -18.4375 C 9.816406 -18.4375 10.617188 -18.359375 11.390625 -18.203125 C 12.171875 -18.054688 12.890625 -17.828125 13.546875 -17.515625 C 14.203125 -17.203125 14.773438 -16.832031 15.265625 -16.40625 L 14.1875 -13.78125 C 13.46875 -14.394531 12.671875 -14.84375 11.796875 -15.125 C 10.929688 -15.414062 9.984375 -15.5625 8.953125 -15.5625 C 8.160156 -15.5625 7.472656 -15.457031 6.890625 -15.25 C 6.316406 -15.039062 5.867188 -14.742188 5.546875 -14.359375 C 5.234375 -13.972656 5.078125 -13.507812 5.078125 -12.96875 C 5.078125 -12.351562 5.28125 -11.875 5.6875 -11.53125 C 6.09375 -11.1875 6.800781 -10.910156 7.8125 -10.703125 L 10.703125 -10.140625 C 12.421875 -9.796875 13.703125 -9.226562 14.546875 -8.4375 C 15.390625 -7.644531 15.8125 -6.59375 15.8125 -5.28125 C 15.8125 -4.1875 15.515625 -3.222656 14.921875 -2.390625 C 14.328125 -1.554688 13.488281 -0.90625 12.40625 -0.4375 C 11.320312 0.03125 10.050781 0.265625 8.59375 0.265625 Z M 8.59375 0.265625 "/></g></g></g><g fill="#000000" fill-opacity="1"><g transform="translate(140.439814, 119.531607)"><g><path d="M 6.171875 0.265625 C 5.234375 0.265625 4.398438 0.0859375 3.671875 -0.265625 C 2.941406 -0.617188 2.363281 -1.097656 1.9375 -1.703125 C 1.519531 -2.316406 1.3125 -3.003906 1.3125 -3.765625 C 1.3125 -4.710938 1.566406 -5.460938 2.078125 -6.015625 C 2.597656 -6.578125 3.414062 -6.988281 4.53125 -7.25 C 5.65625 -7.507812 7.117188 -7.640625 8.921875 -7.640625 L 10.453125 -7.640625 L 10.453125 -5.671875 L 9.03125 -5.671875 C 8.21875 -5.671875 7.53125 -5.640625 6.96875 -5.578125 C 6.414062 -5.523438 5.960938 -5.429688 5.609375 -5.296875 C 5.253906 -5.171875 4.992188 -4.992188 4.828125 -4.765625 C 4.671875 -4.546875 4.59375 -4.273438 4.59375 -3.953125 C 4.59375 -3.359375 4.796875 -2.898438 5.203125 -2.578125 C 5.617188 -2.253906 6.1875 -2.09375 6.90625 -2.09375 C 7.5 -2.09375 8.023438 -2.226562 8.484375 -2.5 C 8.953125 -2.78125 9.328125 -3.15625 9.609375 -3.625 C 9.890625 -4.09375 10.03125 -4.625 10.03125 -5.21875 L 10.03125 -8.09375 C 10.03125 -8.957031 9.8125 -9.566406 9.375 -9.921875 C 8.9375 -10.285156 8.238281 -10.46875 7.28125 -10.46875 C 6.570312 -10.46875 5.84375 -10.363281 5.09375 -10.15625 C 4.34375 -9.957031 3.570312 -9.625 2.78125 -9.15625 L 1.859375 -11.453125 C 2.359375 -11.773438 2.925781 -12.046875 3.5625 -12.265625 C 4.195312 -12.492188 4.863281 -12.671875 5.5625 -12.796875 C 6.257812 -12.929688 6.929688 -13 7.578125 -13 C 8.804688 -13 9.835938 -12.804688 10.671875 -12.421875 C 11.515625 -12.046875 12.148438 -11.472656 12.578125 -10.703125 C 13.015625 -9.929688 13.234375 -8.925781 13.234375 -7.6875 L 13.234375 0 L 10.265625 0 L 10.265625 -2.65625 L 10.34375 -2.65625 C 10.175781 -2.09375 9.894531 -1.585938 9.5 -1.140625 C 9.113281 -0.703125 8.640625 -0.359375 8.078125 -0.109375 C 7.523438 0.140625 6.890625 0.265625 6.171875 0.265625 Z M 6.171875 0.265625 "/></g></g></g><g fill="#000000" fill-opacity="1"><g transform="translate(155.444482, 119.531607)"><g><path d="M 5.421875 0 L 0 -12.75 L 3.5625 -12.75 L 7.28125 -3.125 L 6.8125 -3.125 L 10.609375 -12.75 L 13.984375 -12.75 L 8.515625 0 Z M 5.421875 0 "/></g></g></g><g fill="#000000" fill-opacity="1"><g transform="translate(169.392117, 119.531607)"><g><path d="M 8.328125 0.265625 C 6.816406 0.265625 5.523438 0 4.453125 -0.53125 C 3.378906 -1.070312 2.554688 -1.835938 1.984375 -2.828125 C 1.421875 -3.828125 1.140625 -5.007812 1.140625 -6.375 C 1.140625 -7.664062 1.410156 -8.800781 1.953125 -9.78125 C 2.492188 -10.769531 3.253906 -11.550781 4.234375 -12.125 C 5.210938 -12.707031 6.351562 -13 7.65625 -13 C 8.882812 -13 9.941406 -12.734375 10.828125 -12.203125 C 11.722656 -11.679688 12.414062 -10.9375 12.90625 -9.96875 C 13.394531 -9 13.640625 -7.84375 13.640625 -6.5 L 13.640625 -5.5 L 3.8125 -5.5 L 3.8125 -7.484375 L 11.265625 -7.484375 L 10.859375 -7.0625 C 10.859375 -8.25 10.585938 -9.148438 10.046875 -9.765625 C 9.503906 -10.378906 8.734375 -10.6875 7.734375 -10.6875 C 7.035156 -10.6875 6.425781 -10.523438 5.90625 -10.203125 C 5.394531 -9.878906 4.992188 -9.425781 4.703125 -8.84375 C 4.421875 -8.257812 4.28125 -7.546875 4.28125 -6.703125 L 4.28125 -6.453125 C 4.28125 -5.503906 4.4375 -4.722656 4.75 -4.109375 C 5.0625 -3.503906 5.523438 -3.054688 6.140625 -2.765625 C 6.753906 -2.472656 7.507812 -2.328125 8.40625 -2.328125 C 9.09375 -2.328125 9.789062 -2.421875 10.5 -2.609375 C 11.21875 -2.796875 11.867188 -3.113281 12.453125 -3.5625 L 13.390625 -1.296875 C 12.753906 -0.796875 11.972656 -0.410156 11.046875 -0.140625 C 10.128906 0.128906 9.222656 0.265625 8.328125 0.265625 Z M 8.328125 0.265625 "/></g></g></g><g fill="#000000" fill-opacity="1"><g transform="translate(184.11319, 119.531607)"><g/></g></g><g fill="#000000" fill-opacity="1"><g transform="translate(191.383495, 119.531607)"><g><path d="M 9.71875 0.265625 C 7.226562 0.265625 5.320312 -0.375 4 -1.65625 C 2.675781 -2.9375 2.015625 -4.835938 2.015625 -7.359375 L 2.015625 -18.1875 L 5.421875 -18.1875 L 5.421875 -7.421875 C 5.421875 -5.847656 5.789062 -4.671875 6.53125 -3.890625 C 7.269531 -3.117188 8.332031 -2.734375 9.71875 -2.734375 C 11.132812 -2.734375 12.207031 -3.117188 12.9375 -3.890625 C 13.664062 -4.671875 14.03125 -5.847656 14.03125 -7.421875 L 14.03125 -18.1875 L 17.40625 -18.1875 L 17.40625 -7.359375 C 17.40625 -4.859375 16.75 -2.960938 15.4375 -1.671875 C 14.132812 -0.378906 12.226562 0.265625 9.71875 0.265625 Z M 9.71875 0.265625 "/></g></g></g><g fill="#000000" fill-opacity="1"><g transform="translate(210.796747, 119.531607)"><g><path d="M 1.828125 4.640625 L 1.828125 -12.75 L 4.984375 -12.75 L 4.984375 -10.109375 L 4.875 -10.109375 C 5.1875 -11.003906 5.738281 -11.707031 6.53125 -12.21875 C 7.332031 -12.738281 8.269531 -13 9.34375 -13 C 10.488281 -13 11.488281 -12.722656 12.34375 -12.171875 C 13.195312 -11.617188 13.859375 -10.851562 14.328125 -9.875 C 14.804688 -8.894531 15.046875 -7.726562 15.046875 -6.375 C 15.046875 -5.0625 14.8125 -3.898438 14.34375 -2.890625 C 13.875 -1.890625 13.21875 -1.113281 12.375 -0.5625 C 11.539062 -0.0078125 10.535156 0.265625 9.359375 0.265625 C 8.316406 0.265625 7.410156 0.015625 6.640625 -0.484375 C 5.878906 -0.984375 5.34375 -1.640625 5.03125 -2.453125 L 5.1875 -2.453125 L 5.1875 4.640625 Z M 8.40625 -2.296875 C 9.425781 -2.296875 10.226562 -2.644531 10.8125 -3.34375 C 11.394531 -4.050781 11.6875 -5.066406 11.6875 -6.390625 C 11.6875 -7.722656 11.394531 -8.726562 10.8125 -9.40625 C 10.226562 -10.082031 9.425781 -10.421875 8.40625 -10.421875 C 7.40625 -10.421875 6.609375 -10.082031 6.015625 -9.40625 C 5.429688 -8.726562 5.140625 -7.722656 5.140625 -6.390625 C 5.140625 -5.066406 5.429688 -4.050781 6.015625 -3.34375 C 6.609375 -2.644531 7.40625 -2.296875 8.40625 -2.296875 Z M 8.40625 -2.296875 "/></g></g></g><g fill="#000000" fill-opacity="1"><g transform="translate(226.961571, 119.531607)"><g/></g></g><g fill="#000000" fill-opacity="1"><g transform="translate(234.231876, 119.531607)"><g><path d="M 7.796875 0.265625 C 6.054688 0.265625 4.757812 -0.164062 3.90625 -1.03125 C 3.050781 -1.90625 2.625 -3.171875 2.625 -4.828125 L 2.625 -10.140625 L 0.1875 -10.140625 L 0.1875 -12.75 L 2.734375 -12.75 L 2.734375 -16.4375 L 5.984375 -16.4375 L 5.984375 -12.75 L 10.09375 -12.75 L 10.09375 -10.140625 L 5.984375 -10.140625 L 5.984375 -4.984375 C 5.984375 -4.148438 6.171875 -3.53125 6.546875 -3.125 C 6.929688 -2.726562 7.523438 -2.53125 8.328125 -2.53125 C 8.617188 -2.53125 8.90625 -2.554688 9.1875 -2.609375 C 9.476562 -2.671875 9.769531 -2.75 10.0625 -2.84375 L 10.546875 -0.328125 C 10.191406 -0.140625 9.765625 0.00390625 9.265625 0.109375 C 8.773438 0.210938 8.285156 0.265625 7.796875 0.265625 Z M 7.796875 0.265625 "/></g></g></g><g fill="#000000" fill-opacity="1"><g transform="translate(244.931082, 119.531607)"><g><path d="M 7.734375 0.265625 C 6.398438 0.265625 5.238281 -0.00390625 4.25 -0.546875 C 3.257812 -1.097656 2.492188 -1.867188 1.953125 -2.859375 C 1.410156 -3.859375 1.140625 -5.03125 1.140625 -6.375 C 1.140625 -7.726562 1.410156 -8.898438 1.953125 -9.890625 C 2.492188 -10.878906 3.257812 -11.644531 4.25 -12.1875 C 5.238281 -12.726562 6.398438 -13 7.734375 -13 C 9.097656 -13 10.269531 -12.726562 11.25 -12.1875 C 12.226562 -11.644531 12.988281 -10.875 13.53125 -9.875 C 14.070312 -8.882812 14.34375 -7.71875 14.34375 -6.375 C 14.34375 -5.03125 14.070312 -3.859375 13.53125 -2.859375 C 12.988281 -1.867188 12.226562 -1.097656 11.25 -0.546875 C 10.269531 -0.00390625 9.097656 0.265625 7.734375 0.265625 Z M 7.734375 -2.375 C 8.753906 -2.375 9.554688 -2.722656 10.140625 -3.421875 C 10.722656 -4.117188 11.015625 -5.109375 11.015625 -6.390625 C 11.015625 -7.679688 10.722656 -8.664062 10.140625 -9.34375 C 9.554688 -10.03125 8.753906 -10.375 7.734375 -10.375 C 6.742188 -10.375 5.953125 -10.03125 5.359375 -9.34375 C 4.765625 -8.664062 4.46875 -7.679688 4.46875 -6.390625 C 4.46875 -5.109375 4.765625 -4.117188 5.359375 -3.421875 C 5.953125 -2.722656 6.742188 -2.375 7.734375 -2.375 Z M 7.734375 -2.375 "/></g></g></g><g fill="#ef4444" fill-opacity="1"><g transform="translate(58.687503, 252.622055)"><g><path d="M 9.515625 0 L 9.515625 -11.875 L 38.21875 -41.921875 C 40.769531 -44.722656 42.804688 -47.257812 44.328125 -49.53125 C 45.859375 -51.800781 46.972656 -53.960938 47.671875 -56.015625 C 48.378906 -58.078125 48.734375 -60.179688 48.734375 -62.328125 C 48.734375 -66.367188 47.410156 -69.460938 44.765625 -71.609375 C 42.128906 -73.753906 38.378906 -74.828125 33.515625 -74.828125 C 29.722656 -74.828125 25.953125 -74.101562 22.203125 -72.65625 C 18.453125 -71.21875 14.882812 -68.972656 11.5 -65.921875 L 5.9375 -78.03125 C 9.5625 -81.25 13.988281 -83.785156 19.21875 -85.640625 C 24.457031 -87.492188 29.882812 -88.421875 35.5 -88.421875 C 41.675781 -88.421875 46.925781 -87.453125 51.25 -85.515625 C 55.582031 -83.578125 58.882812 -80.753906 61.15625 -77.046875 C 63.425781 -73.335938 64.5625 -68.882812 64.5625 -63.6875 C 64.5625 -61.132812 64.25 -58.597656 63.625 -56.078125 C 63.007812 -53.566406 62.0625 -51.09375 60.78125 -48.65625 C 59.507812 -46.226562 57.921875 -43.753906 56.015625 -41.234375 C 54.117188 -38.722656 51.8125 -36.066406 49.09375 -33.265625 L 27.578125 -10.890625 L 27.578125 -13.484375 L 67.890625 -13.484375 L 67.890625 0 Z M 9.515625 0 "/></g></g></g><g fill="#ef4444" fill-opacity="1"><g transform="translate(132.88126, 252.622055)"><g><path d="M 37.59375 1.234375 C 33.71875 1.234375 29.96875 0.820312 26.34375 0 C 22.71875 -0.820312 19.316406 -1.972656 16.140625 -3.453125 C 12.960938 -4.941406 10.222656 -6.71875 7.921875 -8.78125 L 13.359375 -21.140625 C 17.066406 -18.179688 20.921875 -15.976562 24.921875 -14.53125 C 28.921875 -13.082031 33.0625 -12.359375 37.34375 -12.359375 C 42.539062 -12.359375 46.601562 -13.65625 49.53125 -16.25 C 52.457031 -18.851562 53.921875 -22.460938 53.921875 -27.078125 C 53.921875 -31.703125 52.539062 -35.394531 49.78125 -38.15625 C 47.019531 -40.914062 43.207031 -42.296875 38.34375 -42.296875 C 34.875 -42.296875 31.800781 -41.632812 29.125 -40.3125 C 26.445312 -39 23.953125 -37.019531 21.640625 -34.375 L 10.390625 -34.375 L 10.390625 -87.1875 L 64.4375 -87.1875 L 64.4375 -73.703125 L 25.46875 -73.703125 L 25.46875 -46.75 L 23 -46.75 C 24.976562 -49.382812 27.65625 -51.484375 31.03125 -53.046875 C 34.414062 -54.617188 38.128906 -55.40625 42.171875 -55.40625 C 47.691406 -55.40625 52.492188 -54.25 56.578125 -51.9375 C 60.660156 -49.632812 63.8125 -46.398438 66.03125 -42.234375 C 68.257812 -38.066406 69.375 -33.222656 69.375 -27.703125 C 69.375 -21.847656 68.097656 -16.753906 65.546875 -12.421875 C 62.992188 -8.097656 59.320312 -4.738281 54.53125 -2.34375 C 49.75 0.0390625 44.101562 1.234375 37.59375 1.234375 Z M 37.59375 1.234375 "/></g></g></g><g fill="#ef4444" fill-opacity="1"><g transform="translate(207.075018, 252.622055)"><g><path d="M 38.828125 3.46875 L 28.5625 -2.46875 L 79.515625 -90.65625 L 89.65625 -84.71875 Z M 27.828125 -35.125 C 23.210938 -35.125 19.210938 -36.191406 15.828125 -38.328125 C 12.453125 -40.472656 9.875 -43.546875 8.09375 -47.546875 C 6.320312 -51.546875 5.4375 -56.304688 5.4375 -61.828125 C 5.4375 -70.078125 7.4375 -76.570312 11.4375 -81.3125 C 15.4375 -86.050781 20.898438 -88.421875 27.828125 -88.421875 C 32.441406 -88.421875 36.414062 -87.347656 39.75 -85.203125 C 43.09375 -83.066406 45.671875 -80.019531 47.484375 -76.0625 C 49.296875 -72.101562 50.203125 -67.359375 50.203125 -61.828125 C 50.203125 -56.390625 49.296875 -51.648438 47.484375 -47.609375 C 45.671875 -43.566406 43.09375 -40.472656 39.75 -38.328125 C 36.414062 -36.191406 32.441406 -35.125 27.828125 -35.125 Z M 27.828125 -45.515625 C 30.796875 -45.515625 33.144531 -46.832031 34.875 -49.46875 C 36.601562 -52.101562 37.46875 -56.222656 37.46875 -61.828125 C 37.46875 -67.441406 36.601562 -71.546875 34.875 -74.140625 C 33.144531 -76.734375 30.796875 -78.03125 27.828125 -78.03125 C 24.773438 -78.03125 22.382812 -76.753906 20.65625 -74.203125 C 18.925781 -71.648438 18.0625 -67.523438 18.0625 -61.828125 C 18.0625 -56.222656 18.925781 -52.101562 20.65625 -49.46875 C 22.382812 -46.832031 24.773438 -45.515625 27.828125 -45.515625 Z M 90.53125 1.234375 C 85.914062 1.234375 81.914062 0.164062 78.53125 -1.96875 C 75.15625 -4.113281 72.578125 -7.1875 70.796875 -11.1875 C 69.023438 -15.1875 68.140625 -19.945312 68.140625 -25.46875 C 68.140625 -33.71875 70.140625 -40.210938 74.140625 -44.953125 C 78.140625 -49.691406 83.601562 -52.0625 90.53125 -52.0625 C 95.144531 -52.0625 99.117188 -50.988281 102.453125 -48.84375 C 105.796875 -46.707031 108.375 -43.660156 110.1875 -39.703125 C 112 -35.742188 112.90625 -31 112.90625 -25.46875 C 112.90625 -19.945312 112 -15.1875 110.1875 -11.1875 C 108.375 -7.1875 105.796875 -4.113281 102.453125 -1.96875 C 99.117188 0.164062 95.144531 1.234375 90.53125 1.234375 Z M 90.53125 -9.15625 C 93.5 -9.15625 95.847656 -10.472656 97.578125 -13.109375 C 99.304688 -15.742188 100.171875 -19.863281 100.171875 -25.46875 C 100.171875 -31.082031 99.304688 -35.1875 97.578125 -37.78125 C 95.847656 -40.375 93.5 -41.671875 90.53125 -41.671875 C 87.476562 -41.671875 85.082031 -40.394531 83.34375 -37.84375 C 81.613281 -35.289062 80.75 -31.164062 80.75 -25.46875 C 80.75 -19.78125 81.613281 -15.640625 83.34375 -13.046875 C 85.082031 -10.453125 87.476562 -9.15625 90.53125 -9.15625 Z M 90.53125 -9.15625 "/></g></g></g></svg>