<svg xmlns="http://www.w3.org/2000/svg" xmlns:xlink="http://www.w3.org/1999/xlink" width="70" zoomAndPan="magnify" viewBox="0 0 52.5 104.999997" height="140" preserveAspectRatio="xMidYMid meet" version="1.0"><defs><g/><clipPath id="8e7f12c3a8"><path d="M 26 37.34375 L 37.246094 37.34375 L 37.246094 56.660156 L 26 56.660156 Z M 26 37.34375 " clip-rule="nonzero"/></clipPath><clipPath id="a3c3a94742"><path d="M 15 37.34375 L 27 37.34375 L 27 56.660156 L 15 56.660156 Z M 15 37.34375 " clip-rule="nonzero"/></clipPath></defs><g clip-path="url(#8e7f12c3a8)"><path stroke-linecap="round" transform="matrix(1.382896, 0, 0, 1.369932, 15.039866, 35.973797)" fill="none" stroke-linejoin="round" d="M 8.498903 10.788939 L 11.498721 8.000251 L 8.498903 5.208711 L 8.498903 1.499014 L 15.501303 8.000251 L 8.498903 14.498636 Z M 8.498903 10.788939 " stroke="#000000" stroke-width="1" stroke-opacity="1" stroke-miterlimit="10"/></g><g clip-path="url(#a3c3a94742)"><path stroke-linecap="round" transform="matrix(1.382896, 0, 0, 1.369932, 15.039866, 35.973797)" fill="none" stroke-linejoin="round" d="M 0.499388 10.788939 L 3.499206 8.000251 L 0.499388 5.208711 L 0.499388 1.499014 L 7.498964 8.000251 L 0.499388 14.498636 Z M 0.499388 10.788939 " stroke="#000000" stroke-width="1" stroke-opacity="1" stroke-miterlimit="10"/></g><g fill="#000000" fill-opacity="1"><g transform="translate(6.594184, 65.364518)"><g><path d="M 2.1875 0 L -0.0625 -5.09375 L 0.953125 -5.09375 L 2.703125 -0.984375 L 2.515625 -0.984375 L 4.25 -5.09375 L 5.25 -5.09375 L 3 0 Z M 2.1875 0 "/></g></g></g><g fill="#000000" fill-opacity="1"><g transform="translate(11.783205, 65.364518)"><g><path d="M 0.453125 -4.3125 L 0.453125 -5.234375 L 1.515625 -5.234375 L 1.515625 -4.3125 Z M 0.515625 0 L 0.515625 -3.578125 L 1.453125 -3.578125 L 1.453125 0 Z M 0.515625 0 "/></g></g></g><g fill="#000000" fill-opacity="1"><g transform="translate(13.751702, 65.364518)"><g><path d="M 2.34375 0.078125 C 1.914062 0.078125 1.550781 0.00390625 1.25 -0.140625 C 0.945312 -0.296875 0.710938 -0.515625 0.546875 -0.796875 C 0.390625 -1.078125 0.3125 -1.40625 0.3125 -1.78125 C 0.3125 -2.144531 0.390625 -2.460938 0.546875 -2.734375 C 0.703125 -3.015625 0.914062 -3.234375 1.1875 -3.390625 C 1.457031 -3.554688 1.78125 -3.640625 2.15625 -3.640625 C 2.488281 -3.640625 2.78125 -3.566406 3.03125 -3.421875 C 3.289062 -3.273438 3.488281 -3.066406 3.625 -2.796875 C 3.757812 -2.523438 3.828125 -2.203125 3.828125 -1.828125 L 3.828125 -1.546875 L 1.078125 -1.546875 L 1.078125 -2.09375 L 3.15625 -2.09375 L 3.046875 -1.984375 C 3.046875 -2.316406 2.96875 -2.566406 2.8125 -2.734375 C 2.664062 -2.910156 2.453125 -3 2.171875 -3 C 1.972656 -3 1.800781 -2.953125 1.65625 -2.859375 C 1.507812 -2.773438 1.394531 -2.648438 1.3125 -2.484375 C 1.238281 -2.316406 1.203125 -2.113281 1.203125 -1.875 L 1.203125 -1.8125 C 1.203125 -1.539062 1.242188 -1.316406 1.328125 -1.140625 C 1.421875 -0.972656 1.550781 -0.847656 1.71875 -0.765625 C 1.894531 -0.691406 2.109375 -0.65625 2.359375 -0.65625 C 2.546875 -0.65625 2.738281 -0.679688 2.9375 -0.734375 C 3.144531 -0.785156 3.332031 -0.875 3.5 -1 L 3.75 -0.359375 C 3.570312 -0.222656 3.351562 -0.113281 3.09375 -0.03125 C 2.84375 0.0390625 2.59375 0.078125 2.34375 0.078125 Z M 2.34375 0.078125 "/></g></g></g><g fill="#000000" fill-opacity="1"><g transform="translate(17.884102, 65.364518)"><g><path d="M 1.421875 0 L 0.078125 -3.578125 L 1.015625 -3.578125 L 1.921875 -0.921875 L 1.828125 -0.921875 L 2.796875 -3.578125 L 3.46875 -3.578125 L 4.421875 -0.921875 L 4.34375 -0.921875 L 5.25 -3.578125 L 6.15625 -3.578125 L 4.8125 0 L 4.015625 0 L 2.984375 -2.734375 L 3.234375 -2.734375 L 2.21875 0 Z M 1.421875 0 "/></g></g></g><g fill="#000000" fill-opacity="1"><g transform="translate(24.115268, 65.364518)"><g/></g></g><g fill="#000000" fill-opacity="1"><g transform="translate(26.156134, 65.364518)"><g><path d="M 2.40625 0.078125 C 2.132812 0.078125 1.875 0.0507812 1.625 0 C 1.375 -0.0390625 1.140625 -0.0976562 0.921875 -0.171875 C 0.710938 -0.253906 0.53125 -0.359375 0.375 -0.484375 L 0.671875 -1.234375 C 0.828125 -1.128906 1 -1.035156 1.1875 -0.953125 C 1.375 -0.878906 1.566406 -0.820312 1.765625 -0.78125 C 1.972656 -0.75 2.1875 -0.734375 2.40625 -0.734375 C 2.769531 -0.734375 3.039062 -0.796875 3.21875 -0.921875 C 3.394531 -1.046875 3.484375 -1.210938 3.484375 -1.421875 C 3.484375 -1.535156 3.457031 -1.628906 3.40625 -1.703125 C 3.351562 -1.785156 3.265625 -1.851562 3.140625 -1.90625 C 3.015625 -1.957031 2.851562 -2.003906 2.65625 -2.046875 L 1.84375 -2.203125 C 1.375 -2.296875 1.03125 -2.457031 0.8125 -2.6875 C 0.59375 -2.925781 0.484375 -3.234375 0.484375 -3.609375 C 0.484375 -3.929688 0.566406 -4.207031 0.734375 -4.4375 C 0.910156 -4.675781 1.148438 -4.859375 1.453125 -4.984375 C 1.765625 -5.109375 2.117188 -5.171875 2.515625 -5.171875 C 2.753906 -5.171875 2.976562 -5.148438 3.1875 -5.109375 C 3.40625 -5.066406 3.609375 -5 3.796875 -4.90625 C 3.984375 -4.820312 4.144531 -4.71875 4.28125 -4.59375 L 3.984375 -3.859375 C 3.773438 -4.035156 3.546875 -4.160156 3.296875 -4.234375 C 3.054688 -4.316406 2.796875 -4.359375 2.515625 -4.359375 C 2.285156 -4.359375 2.085938 -4.328125 1.921875 -4.265625 C 1.765625 -4.210938 1.640625 -4.128906 1.546875 -4.015625 C 1.460938 -3.910156 1.421875 -3.785156 1.421875 -3.640625 C 1.421875 -3.460938 1.476562 -3.328125 1.59375 -3.234375 C 1.707031 -3.140625 1.90625 -3.0625 2.1875 -3 L 3 -2.84375 C 3.476562 -2.75 3.835938 -2.585938 4.078125 -2.359375 C 4.316406 -2.140625 4.4375 -1.847656 4.4375 -1.484375 C 4.4375 -1.171875 4.351562 -0.894531 4.1875 -0.65625 C 4.019531 -0.425781 3.785156 -0.242188 3.484375 -0.109375 C 3.179688 0.015625 2.820312 0.078125 2.40625 0.078125 Z M 2.40625 0.078125 "/></g></g></g><g fill="#000000" fill-opacity="1"><g transform="translate(30.889212, 65.364518)"><g><path d="M 2.1875 0.078125 C 1.695312 0.078125 1.332031 -0.0390625 1.09375 -0.28125 C 0.851562 -0.53125 0.734375 -0.890625 0.734375 -1.359375 L 0.734375 -2.84375 L 0.046875 -2.84375 L 0.046875 -3.578125 L 0.765625 -3.578125 L 0.765625 -4.609375 L 1.671875 -4.609375 L 1.671875 -3.578125 L 2.828125 -3.578125 L 2.828125 -2.84375 L 1.671875 -2.84375 L 1.671875 -1.390625 C 1.671875 -1.160156 1.722656 -0.988281 1.828125 -0.875 C 1.941406 -0.757812 2.113281 -0.703125 2.34375 -0.703125 C 2.414062 -0.703125 2.492188 -0.710938 2.578125 -0.734375 C 2.660156 -0.753906 2.742188 -0.773438 2.828125 -0.796875 L 2.953125 -0.09375 C 2.859375 -0.0390625 2.738281 0 2.59375 0.03125 C 2.457031 0.0625 2.320312 0.078125 2.1875 0.078125 Z M 2.1875 0.078125 "/></g></g></g><g fill="#000000" fill-opacity="1"><g transform="translate(33.892622, 65.364518)"><g><path d="M 2.171875 0.078125 C 1.796875 0.078125 1.46875 0 1.1875 -0.15625 C 0.914062 -0.3125 0.703125 -0.523438 0.546875 -0.796875 C 0.390625 -1.078125 0.3125 -1.40625 0.3125 -1.78125 C 0.3125 -2.164062 0.390625 -2.492188 0.546875 -2.765625 C 0.703125 -3.046875 0.914062 -3.257812 1.1875 -3.40625 C 1.46875 -3.5625 1.796875 -3.640625 2.171875 -3.640625 C 2.546875 -3.640625 2.867188 -3.5625 3.140625 -3.40625 C 3.421875 -3.257812 3.632812 -3.046875 3.78125 -2.765625 C 3.9375 -2.484375 4.015625 -2.15625 4.015625 -1.78125 C 4.015625 -1.40625 3.9375 -1.078125 3.78125 -0.796875 C 3.632812 -0.523438 3.421875 -0.3125 3.140625 -0.15625 C 2.867188 0 2.546875 0.078125 2.171875 0.078125 Z M 2.171875 -0.671875 C 2.453125 -0.671875 2.675781 -0.765625 2.84375 -0.953125 C 3.007812 -1.148438 3.09375 -1.429688 3.09375 -1.796875 C 3.09375 -2.160156 3.007812 -2.4375 2.84375 -2.625 C 2.675781 -2.8125 2.453125 -2.90625 2.171875 -2.90625 C 1.890625 -2.90625 1.664062 -2.8125 1.5 -2.625 C 1.332031 -2.4375 1.25 -2.160156 1.25 -1.796875 C 1.25 -1.429688 1.332031 -1.148438 1.5 -0.953125 C 1.664062 -0.765625 1.890625 -0.671875 2.171875 -0.671875 Z M 2.171875 -0.671875 "/></g></g></g><g fill="#000000" fill-opacity="1"><g transform="translate(38.234901, 65.364518)"><g><path d="M 0.515625 0 L 0.515625 -3.578125 L 1.390625 -3.578125 L 1.390625 -2.703125 L 1.359375 -2.703125 C 1.429688 -2.984375 1.566406 -3.203125 1.765625 -3.359375 C 1.960938 -3.523438 2.222656 -3.613281 2.546875 -3.625 L 2.890625 -3.65625 L 2.953125 -2.828125 L 2.359375 -2.78125 C 2.066406 -2.75 1.84375 -2.65625 1.6875 -2.5 C 1.539062 -2.34375 1.46875 -2.128906 1.46875 -1.859375 L 1.46875 0 Z M 0.515625 0 "/></g></g></g><g fill="#000000" fill-opacity="1"><g transform="translate(41.274496, 65.364518)"><g><path d="M 2.34375 0.078125 C 1.914062 0.078125 1.550781 0.00390625 1.25 -0.140625 C 0.945312 -0.296875 0.710938 -0.515625 0.546875 -0.796875 C 0.390625 -1.078125 0.3125 -1.40625 0.3125 -1.78125 C 0.3125 -2.144531 0.390625 -2.460938 0.546875 -2.734375 C 0.703125 -3.015625 0.914062 -3.234375 1.1875 -3.390625 C 1.457031 -3.554688 1.78125 -3.640625 2.15625 -3.640625 C 2.488281 -3.640625 2.78125 -3.566406 3.03125 -3.421875 C 3.289062 -3.273438 3.488281 -3.066406 3.625 -2.796875 C 3.757812 -2.523438 3.828125 -2.203125 3.828125 -1.828125 L 3.828125 -1.546875 L 1.078125 -1.546875 L 1.078125 -2.09375 L 3.15625 -2.09375 L 3.046875 -1.984375 C 3.046875 -2.316406 2.96875 -2.566406 2.8125 -2.734375 C 2.664062 -2.910156 2.453125 -3 2.171875 -3 C 1.972656 -3 1.800781 -2.953125 1.65625 -2.859375 C 1.507812 -2.773438 1.394531 -2.648438 1.3125 -2.484375 C 1.238281 -2.316406 1.203125 -2.113281 1.203125 -1.875 L 1.203125 -1.8125 C 1.203125 -1.539062 1.242188 -1.316406 1.328125 -1.140625 C 1.421875 -0.972656 1.550781 -0.847656 1.71875 -0.765625 C 1.894531 -0.691406 2.109375 -0.65625 2.359375 -0.65625 C 2.546875 -0.65625 2.738281 -0.679688 2.9375 -0.734375 C 3.144531 -0.785156 3.332031 -0.875 3.5 -1 L 3.75 -0.359375 C 3.570312 -0.222656 3.351562 -0.113281 3.09375 -0.03125 C 2.84375 0.0390625 2.59375 0.078125 2.34375 0.078125 Z M 2.34375 0.078125 "/></g></g></g></svg>