<svg xmlns="http://www.w3.org/2000/svg" xmlns:xlink="http://www.w3.org/1999/xlink" width="70" zoomAndPan="magnify" viewBox="0 0 52.5 104.999997" height="140" preserveAspectRatio="xMidYMid meet" version="1.0"><defs><clipPath id="e6cc5ba758"><path d="M 25 40.019531 L 39.96875 40.019531 L 39.96875 65.28125 L 25 65.28125 Z M 25 40.019531 " clip-rule="nonzero"/></clipPath><clipPath id="50467d44ee"><path d="M 11.738281 40.019531 L 26 40.019531 L 26 65.28125 L 11.738281 65.28125 Z M 11.738281 40.019531 " clip-rule="nonzero"/></clipPath></defs><g clip-path="url(#e6cc5ba758)"><path stroke-linecap="round" transform="matrix(1.752034, 0, 0, 1.791449, 11.838669, 38.228435)" fill="none" stroke-linejoin="round" d="M 8.499723 10.790235 L 11.5007 7.999199 L 8.499723 5.210343 L 8.499723 1.499137 L 15.500516 7.999199 L 8.499723 14.499261 Z M 8.499723 10.790235 " stroke="#000000" stroke-width="1" stroke-opacity="1" stroke-miterlimit="10"/></g><g clip-path="url(#50467d44ee)"><path stroke-linecap="round" transform="matrix(1.752034, 0, 0, 1.791449, 11.838669, 38.228435)" fill="none" stroke-linejoin="round" d="M 0.50009 10.790235 L 3.501067 7.999199 L 0.50009 5.210343 L 0.50009 1.499137 L 7.500883 7.999199 L 0.50009 14.499261 Z M 0.50009 10.790235 " stroke="#000000" stroke-width="1" stroke-opacity="1" stroke-miterlimit="10"/></g></svg>